<?xml version="1.0" ?><svg enable-background="new 0 0 24 24" id="Layer_1" version="1.1" viewBox="0 0 24 24" xml:space="preserve" xmlns="http://www.w3.org/2000/svg" xmlns:xlink="http://www.w3.org/1999/xlink"><g><path d="M12,0C5.3833008,0,0,5.3828125,0,12s5.3833008,12,12,12s12-5.3828125,12-12S18.6166992,0,12,0z" fill="#303C42"/><path d="M12,23C5.9345703,23,1,18.0654297,1,12S5.9345703,1,12,1s11,4.9345703,11,11S18.0654297,23,12,23z" fill="#FED600"/><path d="M19.119751,3.630249C20.7561646,5.5509644,21.75,8.0349121,21.75,10.75   c0,6.0654297-4.9345703,11-11,11c-2.7150879,0-5.1990356-0.9938354-7.119751-2.630249C5.6494751,21.4898682,8.6496582,23,12,23   c6.0654297,0,11-4.9345703,11-11C23,8.6496582,21.4898682,5.6494751,19.119751,3.630249z" fill="#010101" opacity="0.1"/><ellipse cx="16" cy="9.5" fill="#303C42" rx="3" ry="3.5"/><path d="M16,12c-1.1030273,0-2-1.1210938-2-2.5c0-0.4741821,0.1119995-0.913147,0.2960205-1.2912598   C14.4769287,8.3883667,14.7255859,8.5,15,8.5c0.5512695,0,1-0.4482422,1-1c0-0.1783447-0.0594482-0.3370361-0.1415405-0.4821167   C15.9060669,7.0136108,15.9515381,7,16,7c1.1030273,0,2,1.1210938,2,2.5S17.1030273,12,16,12z" fill="#FFFFFF"/><path d="M16.9807129,7.3344727C17.2999878,7.7775879,17.5,8.3578491,17.5,9   c0,1.3789063-0.8969727,2.5-2,2.5c-0.3580933,0-0.6896973-0.1276855-0.9807129-0.3344727   C14.8856201,11.6739502,15.4106445,12,16,12c1.1030273,0,2-1.1210938,2-2.5   C18,8.5687256,17.5861206,7.7645874,16.9807129,7.3344727z" fill="#010101" opacity="0.1"/><ellipse cx="8" cy="9.5" fill="#303C42" rx="3" ry="3.5"/><path d="M8,12c-1.1030273,0-2-1.1210938-2-2.5c0-0.4741821,0.1119995-0.913147,0.2960205-1.2912598   C6.4769287,8.3883667,6.7255859,8.5,7,8.5c0.5512695,0,1-0.4482422,1-1c0-0.1783447-0.0594482-0.3370361-0.1415405-0.4821167   C7.9060669,7.0136108,7.9515381,7,8,7c1.1030273,0,2,1.1210938,2,2.5S9.1030273,12,8,12z" fill="#FFFFFF"/><path d="M8.9807129,7.3344727C9.2999878,7.7775879,9.5,8.3578491,9.5,9   c0,1.3789063-0.8969727,2.5-2,2.5c-0.3580933,0-0.6896973-0.1276855-0.9807129-0.3344727C6.8856201,11.6739502,7.4106445,12,8,12   c1.1030273,0,2-1.1210938,2-2.5C10,8.5687256,9.5861206,7.7645874,8.9807129,7.3344727z" fill="#010101" opacity="0.1"/><path d="M14.5,17h-5C9.2236328,17,9,17.2236328,9,17.5S9.2236328,18,9.5,18h5c0.2763672,0,0.5-0.2236328,0.5-0.5   S14.7763672,17,14.5,17z" fill="#303C42"/><path d="M19.9472656,6.2763672C18.8217773,4.0263672,15.6352539,4,15.5,4C15.2236328,4,15,4.2236328,15,4.5   S15.2236328,5,15.5,5c0.0268555,0,2.7006836,0.0195313,3.5527344,1.7236328C19.140625,6.8984375,19.3168945,7,19.5004883,7   c0.0751953,0,0.1513672-0.0166016,0.2231445-0.0527344C19.9707031,6.8232422,20.0708008,6.5234375,19.9472656,6.2763672z" fill="#303C42"/><path d="M8.5009766,5C8.7768555,4.9990234,9,4.7753906,8.9995117,4.4990234C8.9990234,4.2236328,8.7758789,4,8.5,4   C8.3647461,4,5.1782227,4.0263672,4.0527344,6.2763672c-0.1235352,0.2470703-0.0234375,0.546875,0.2236328,0.6708984   C4.3481445,6.9833984,4.4243164,7,4.4995117,7C4.6831055,7,4.859375,6.8984375,4.9472656,6.7236328   C5.7949219,5.0283203,8.4736328,5,8.5009766,5z" fill="#303C42"/><linearGradient gradientUnits="userSpaceOnUse" id="SVGID_1_" x1="1.1248375" x2="22.8751621" y1="6.9288282" y2="17.0711708"><stop offset="0" style="stop-color:#FFFFFF;stop-opacity:0.2"/><stop offset="1" style="stop-color:#FFFFFF;stop-opacity:0"/></linearGradient><path d="M12,0C5.3833008,0,0,5.3828125,0,12s5.3833008,12,12,12s12-5.3828125,12-12S18.6166992,0,12,0z" fill="url(#SVGID_1_)"/></g><g/><g/><g/><g/><g/><g/><g/><g/><g/><g/><g/><g/><g/><g/><g/></svg>